<svg width="137" height="39" viewBox="0 0 137 39" fill="none" xmlns="http://www.w3.org/2000/svg">
<path d="M47.121 25.946C43.9023 25.946 41.293 23.2742 41.293 19.9778C41.293 16.6823 43.9023 14.0105 47.121 14.0105C50.3397 14.0105 52.9486 16.6823 52.9486 19.9778C52.9486 23.2742 50.3397 25.946 47.121 25.946ZM52.967 26.7029C53.0474 27.6186 53.7791 28.7845 55.0469 28.7845H55.7886C56.0761 28.7845 56.3119 28.5485 56.3119 28.2605V11.9292H56.3085C56.2937 11.6541 56.0666 11.4335 55.7886 11.4335H53.4903C53.2123 11.4335 52.9852 11.6541 52.9698 11.9292H52.967V13.2561C51.5586 11.5185 49.3384 10.7971 47.112 10.7971C42.0513 10.7971 37.9485 14.9074 37.9485 19.9778C37.9485 25.0488 42.0513 29.1591 47.112 29.1591C49.3384 29.1591 51.7648 28.2941 52.9668 26.7007L52.967 26.7029ZM84.7658 25.946C81.5473 25.946 78.9378 23.2742 78.9378 19.9778C78.9378 16.6823 81.5473 14.0105 84.7658 14.0105C87.9846 14.0105 90.5935 16.6823 90.5935 19.9778C90.5935 23.2742 87.9846 25.946 84.7658 25.946ZM90.612 26.7029C90.6923 27.6186 91.424 28.7845 92.6918 28.7845H93.4339C93.7213 28.7845 93.9568 28.5485 93.9568 28.2605V11.9292H93.9538C93.9387 11.6541 93.7116 11.4335 93.4339 11.4335H91.1352C90.8573 11.4335 90.6304 11.6541 90.6147 11.9292H90.612V13.2561C89.2035 11.5185 86.9833 10.7971 84.7569 10.7971C79.696 10.7971 75.5934 14.9074 75.5934 19.9778C75.5934 25.0488 79.696 29.1591 84.7569 29.1591C86.9833 29.1591 89.4097 28.2941 90.6117 26.7007L90.612 26.7029Z" fill="#E4E4E7"/>
<path d="M126.098 25.7939C122.937 25.7939 120.375 23.1749 120.375 19.9436C120.375 16.7132 122.937 14.0942 126.098 14.0942C129.259 14.0942 131.822 16.7132 131.822 19.9436C131.822 23.1749 129.259 25.7939 126.098 25.7939ZM131.84 26.5358C131.919 27.4334 132.637 28.5762 133.882 28.5762H134.611C134.893 28.5762 135.125 28.3449 135.125 28.0626V12.054H135.122C135.107 11.7844 134.884 11.5681 134.611 11.5681H132.353C132.081 11.5681 131.858 11.7844 131.843 12.054H131.84V13.3548C130.457 11.6514 128.276 10.9443 126.09 10.9443C121.119 10.9443 117.09 14.9734 117.09 19.9436C117.09 24.9144 121.119 28.9435 126.09 28.9435C128.276 28.9435 130.659 28.0955 131.839 26.5336L131.84 26.5358Z" fill="#E4E4E7"/>
<path d="M114.153 26.7278L114.152 18.533C114.152 13.9135 111.215 10.7971 106.532 10.7971C104.296 10.7971 102.25 12.069 101.816 13.182C101.676 12.3203 101.215 11.4145 99.7853 11.4145H99.0566C98.7749 11.4145 98.5445 11.6436 98.5445 11.9228V26.223V26.2252V27.7332V27.7611H98.5475C98.562 28.0274 98.7847 28.2416 99.0569 28.2416H100.581H101.307C101.342 28.2416 101.376 28.2375 101.408 28.231C101.423 28.2283 101.437 28.2226 101.451 28.2185C101.468 28.2134 101.486 28.2093 101.501 28.2028C101.521 28.1946 101.54 28.1835 101.558 28.1732C101.567 28.1678 101.577 28.1637 101.586 28.158C101.608 28.1437 101.629 28.1263 101.649 28.1087C101.652 28.1054 101.656 28.1033 101.659 28.1003C101.682 28.0789 101.702 28.0553 101.72 28.0306C101.776 27.9539 101.811 27.8609 101.817 27.7611H101.819V27.7332V26.7281V26.464V18.4058C101.819 15.925 103.846 13.9135 106.347 13.9135C108.847 13.9135 110.875 15.925 110.875 18.4058L110.877 26.2254L110.877 26.223C110.877 26.2298 110.878 26.2368 110.878 26.2444V27.7332V27.7611H110.881C110.896 28.0274 111.119 28.2416 111.391 28.2416H112.914H113.641C113.676 28.2416 113.709 28.2375 113.742 28.231C113.755 28.2285 113.768 28.2234 113.781 28.2196C113.799 28.2144 113.818 28.2098 113.836 28.2028C113.854 28.1952 113.871 28.1849 113.888 28.1749C113.899 28.1692 113.91 28.1648 113.92 28.158C113.941 28.1445 113.96 28.1282 113.979 28.1117C113.983 28.1076 113.989 28.1044 113.993 28.0998C114.015 28.0794 114.033 28.0575 114.051 28.0341C114.052 28.0325 114.054 28.0312 114.055 28.0295C114.111 27.9533 114.144 27.8617 114.15 27.7625C114.15 27.7617 114.15 27.7611 114.15 27.7611H114.153V27.7332L114.153 26.7278ZM61.1933 24.3637C62.7638 25.4289 64.4783 25.9459 66.126 25.9459C67.6954 25.9459 69.3176 25.1496 69.3176 23.7634C69.3176 21.9128 65.7821 21.6249 63.5608 20.8859C61.339 20.147 59.4253 18.6196 59.4253 16.1456C59.4253 12.3606 62.8712 10.7971 66.0877 10.7971C68.1256 10.7971 70.228 11.455 71.5912 12.3969C72.0608 12.745 71.7748 13.1451 71.7748 13.1451L70.4734 14.9638C70.3274 15.1687 70.0715 15.346 69.7044 15.124C69.3373 14.9023 68.0499 14.0104 66.0877 14.0104C64.1253 14.0104 62.9432 14.8975 62.9432 15.9968C62.9432 17.3151 64.4795 17.7297 66.2791 18.179C69.4148 19.0063 72.8358 20.0008 72.8358 23.7634C72.8358 27.0986 69.6484 29.1597 66.126 29.1597C63.4562 29.1597 61.1836 28.4149 59.2774 27.0457C58.88 26.6568 59.1574 26.2956 59.1574 26.2956L60.4523 24.4859C60.7157 24.1476 61.0479 24.2655 61.1933 24.3637Z" fill="#E4E4E7"/>
<path d="M24.1756 12.6328C24.1756 16.1823 21.2982 19.0601 17.7487 19.0601C14.1991 19.0601 11.3218 16.1823 11.3218 12.6328C11.3218 9.08404 14.1991 6.2063 17.7487 6.2063C21.2982 6.2063 24.1756 9.08404 24.1756 12.6328Z" fill="#E4E4E7"/>
<path d="M9.46035 20.0291C5.9247 20.0291 3.05859 22.8946 3.05859 26.4302C3.05859 29.9659 5.9247 32.8323 9.46035 32.8323C12.996 32.8323 15.8624 29.9659 15.8624 26.4302C15.8624 22.8946 12.996 20.0291 9.46035 20.0291Z" fill="#E4E4E7"/>
<path d="M25.9154 20.0288C22.4569 20.0288 19.6528 22.8949 19.6528 26.4309C19.6528 29.9662 22.4569 32.8326 25.9154 32.8326C29.3742 32.8326 32.1783 29.9662 32.1783 26.4309C32.1783 22.8949 29.3742 20.0288 25.9154 20.0288Z" fill="#E4E4E7"/>
</svg>
