<svg width="177" height="31" viewBox="0 0 177 31" fill="none" xmlns="http://www.w3.org/2000/svg">
<path d="M170.799 24.6715C170.234 24.042 169.756 23.3396 169.375 22.5829C168.775 21.3968 167.944 20.3438 166.933 19.486C165.922 18.6282 164.751 17.9828 163.488 17.5881C162.384 17.2442 161.229 17.0983 160.075 17.1569C160.915 17.1086 161.742 17.3817 162.39 17.9217C163.039 18.4617 163.461 19.2286 163.572 20.0687C163.875 21.8839 164.674 23.5783 165.879 24.9626C167.083 26.347 168.646 27.3667 170.393 27.908C172.39 28.5263 174.53 28.493 176.508 27.8129C174.305 27.451 172.291 26.3429 170.799 24.6715Z" fill="#E4E4E7"/>
<path d="M156.637 16.9776C156.894 18.0983 157.346 19.1659 157.973 20.1324C157.515 19.4306 157.339 18.5841 157.479 17.7597C157.619 16.9353 158.065 16.193 158.73 15.6792C160.141 14.5207 161.2 12.9961 161.79 11.2753C162.379 9.55455 162.476 7.70507 162.07 5.9329C161.605 3.90557 160.504 2.0772 158.925 0.71167C159.711 2.79801 159.756 5.08833 159.053 7.20367C158.783 8.00227 158.409 8.76208 157.939 9.46344C157.218 10.5652 156.727 11.7993 156.495 13.0928C156.262 14.3863 156.294 15.7129 156.587 16.9942L156.637 16.9776Z" fill="#E4E4E7"/>
<path d="M161.558 20.8796C161.185 21.6336 160.545 22.2164 159.766 22.511C158.988 22.8057 158.129 22.7904 157.361 22.4683C155.668 21.824 153.833 21.6705 152.06 22.0249C150.287 22.3792 148.645 23.2276 147.32 24.475C145.808 25.9038 144.782 27.7835 144.389 29.8431C145.796 28.1082 147.743 26.9127 149.909 26.4539C150.723 26.2847 151.554 26.2192 152.384 26.2588C153.685 26.3273 154.987 26.1303 156.212 25.6794C157.437 25.2284 158.561 24.5327 159.517 23.6333C160.354 22.8439 161.048 21.912 161.569 20.8796H161.558Z" fill="#E4E4E7"/>
<path d="M0.635986 29.7114H5.35199V18.2274C5.35199 16.9554 5.69999 15.9354 6.39599 15.1674C7.09199 14.3994 8.00399 14.0154 9.13199 14.0154C10.284 14.0154 11.196 14.3994 11.868 15.1674C12.564 15.9114 12.912 16.9314 12.912 18.2274V29.7114H17.628V18.2274C17.628 16.9554 17.976 15.9354 18.672 15.1674C19.368 14.3994 20.28 14.0154 21.408 14.0154C22.56 14.0154 23.472 14.3994 24.144 15.1674C24.84 15.9114 25.188 16.9314 25.188 18.2274V29.7114H29.904V17.1114C29.904 15.6474 29.58 14.3634 28.932 13.2594C28.308 12.1314 27.456 11.2554 26.376 10.6314C25.296 10.0074 24.06 9.69536 22.668 9.69536C21.372 9.69536 20.196 9.95936 19.14 10.4874C18.108 11.0154 17.256 11.8074 16.584 12.8634C16.008 11.9034 15.18 11.1354 14.1 10.5594C13.044 9.98336 11.856 9.69536 10.536 9.69536C9.31199 9.69536 8.21999 9.93536 7.25999 10.4154C6.29999 10.8954 5.56799 11.6154 5.06399 12.5754V10.1274H0.635986V29.7114Z" fill="#E4E4E7"/>
<path d="M39.8338 30.1434C42.3778 30.1434 44.4178 29.3034 45.9538 27.6234V29.7114H50.4178V16.6794C50.4178 15.3114 50.0698 14.0994 49.3738 13.0434C48.6778 11.9874 47.7178 11.1714 46.4938 10.5954C45.2938 9.99536 43.8898 9.69536 42.2818 9.69536C40.3138 9.69536 38.5618 10.1634 37.0258 11.0994C35.4898 12.0354 34.4338 13.2714 33.8578 14.8074L37.7098 16.6794C38.0698 15.7914 38.6338 15.0834 39.4018 14.5554C40.1698 14.0034 41.0698 13.7274 42.1018 13.7274C43.1818 13.7274 44.0458 14.0154 44.6938 14.5914C45.3658 15.1434 45.7018 15.8394 45.7018 16.6794V17.3274L39.8698 18.2634C37.5658 18.6474 35.8618 19.3794 34.7578 20.4594C33.6538 21.5394 33.1018 22.8954 33.1018 24.5274C33.1018 26.2554 33.7138 27.6234 34.9378 28.6314C36.1618 29.6394 37.7938 30.1434 39.8338 30.1434ZM37.9978 24.3474C37.9978 22.9794 38.9218 22.1154 40.7698 21.7554L45.7018 20.9274V21.7194C45.7018 23.0634 45.2338 24.2034 44.2978 25.1394C43.3858 26.0754 42.1858 26.5434 40.6978 26.5434C39.9058 26.5434 39.2578 26.3514 38.7538 25.9674C38.2498 25.5594 37.9978 25.0194 37.9978 24.3474Z" fill="#E4E4E7"/>
<path d="M54.7766 29.7114H59.4926V18.8034C59.4926 17.3154 59.9006 16.1634 60.7166 15.3474C61.5566 14.5074 62.6366 14.0874 63.9566 14.0874H65.6486V9.91136H64.4966C63.2966 9.91136 62.2406 10.1274 61.3286 10.5594C60.4166 10.9914 59.7086 11.7714 59.2046 12.8994V10.1274H54.7766V29.7114Z" fill="#E4E4E7"/>
<path d="M77.6968 29.9274C78.4888 29.9274 79.2688 29.8674 80.0368 29.7474V25.6794C79.5808 25.7514 79.1608 25.7874 78.7768 25.7874C77.6248 25.7874 76.7848 25.5234 76.2568 24.9954C75.7288 24.4674 75.4648 23.7114 75.4648 22.7274V14.3394H79.9648V10.1274H75.4648V5.66336H70.7488V7.17536C70.7488 8.13536 70.4848 8.86736 69.9568 9.37136C69.4288 9.87536 68.6848 10.1274 67.7248 10.1274H67.3648V14.3394H70.7488V22.9794C70.7488 25.1634 71.3488 26.8674 72.5488 28.0914C73.7728 29.3154 75.4888 29.9274 77.6968 29.9274Z" fill="#E4E4E7"/>
<path d="M83.6399 7.93136H88.3559V2.89136H83.6399V7.93136ZM83.6399 29.7114H88.3559V10.1274H83.6399V29.7114Z" fill="#E4E4E7"/>
<path d="M92.7102 29.7114H97.4262V18.2274C97.4262 16.9554 97.7862 15.9354 98.5062 15.1674C99.2502 14.3994 100.21 14.0154 101.386 14.0154C102.562 14.0154 103.51 14.3994 104.23 15.1674C104.974 15.9114 105.346 16.9314 105.346 18.2274V29.7114H110.062V17.1114C110.062 15.6474 109.75 14.3634 109.126 13.2594C108.502 12.1314 107.626 11.2554 106.498 10.6314C105.394 10.0074 104.122 9.69536 102.682 9.69536C101.458 9.69536 100.354 9.93536 99.3702 10.4154C98.4102 10.8954 97.6662 11.6034 97.1382 12.5394V10.1274H92.7102V29.7114Z" fill="#E4E4E7"/>
<path d="M123.626 30.1434C125.522 30.1434 127.25 29.7114 128.81 28.8474C130.37 27.9594 131.618 26.7474 132.554 25.2114C133.49 23.6514 133.958 21.8874 133.958 19.9194C133.958 17.9514 133.49 16.1994 132.554 14.6634C131.642 13.1274 130.406 11.9154 128.846 11.0274C127.286 10.1394 125.546 9.69536 123.626 9.69536C121.682 9.69536 119.93 10.1394 118.37 11.0274C116.81 11.9154 115.562 13.1274 114.626 14.6634C113.714 16.1994 113.258 17.9514 113.258 19.9194C113.258 21.8874 113.714 23.6394 114.626 25.1754C115.562 26.7114 116.81 27.9234 118.37 28.8114C119.954 29.6994 121.706 30.1434 123.626 30.1434ZM123.626 25.8234C122.57 25.8234 121.622 25.5714 120.782 25.0674C119.966 24.5634 119.318 23.8674 118.838 22.9794C118.382 22.0674 118.154 21.0474 118.154 19.9194C118.154 18.7914 118.382 17.7834 118.838 16.8954C119.318 16.0074 119.966 15.3114 120.782 14.8074C121.622 14.2794 122.57 14.0154 123.626 14.0154C124.682 14.0154 125.606 14.2794 126.398 14.8074C127.214 15.3114 127.85 16.0074 128.306 16.8954C128.786 17.7834 129.026 18.7914 129.026 19.9194C129.026 21.0474 128.786 22.0674 128.306 22.9794C127.85 23.8674 127.214 24.5634 126.398 25.0674C125.606 25.5714 124.682 25.8234 123.626 25.8234Z" fill="#E4E4E7"/>
</svg>
