<svg width="130" height="39" viewBox="0 0 130 39" fill="none" xmlns="http://www.w3.org/2000/svg">
<path d="M10.2866 30.4C8.4199 30.4 6.5799 30.2 4.76656 29.8C2.95323 29.4 1.48656 28.88 0.366563 28.24L2.84656 22.28C3.88656 22.8933 5.08656 23.3733 6.44656 23.72C7.83323 24.0667 9.1799 24.24 10.4866 24.24C11.5799 24.24 12.3132 24.1467 12.6866 23.96C13.0866 23.7733 13.2866 23.52 13.2866 23.2C13.2866 22.88 13.0599 22.6533 12.6066 22.52C12.1532 22.36 11.5532 22.24 10.8066 22.16C10.0599 22.08 9.23323 21.9867 8.32656 21.88C7.44656 21.7467 6.55323 21.56 5.64656 21.32C4.7399 21.08 3.91323 20.72 3.16656 20.24C2.4199 19.76 1.8199 19.12 1.36656 18.32C0.913229 17.4933 0.686563 16.4533 0.686563 15.2C0.686563 13.8133 1.0999 12.56 1.92656 11.44C2.7799 10.32 4.03323 9.42667 5.68656 8.76C7.36656 8.06667 9.43323 7.72 11.8866 7.72C13.4866 7.72 15.0866 7.86667 16.6866 8.16C18.2866 8.45333 19.6599 8.90667 20.8066 9.52L18.3266 15.48C17.2066 14.8667 16.0999 14.4533 15.0066 14.24C13.9399 14 12.9399 13.88 12.0066 13.88C10.8599 13.88 10.0732 13.9867 9.64656 14.2C9.24656 14.4133 9.04656 14.6533 9.04656 14.92C9.04656 15.24 9.27323 15.48 9.72656 15.64C10.1799 15.8 10.7799 15.92 11.5266 16C12.2732 16.08 13.0866 16.1867 13.9666 16.32C14.8732 16.4267 15.7666 16.6133 16.6466 16.88C17.5532 17.12 18.3799 17.48 19.1266 17.96C19.8732 18.44 20.4732 19.0933 20.9266 19.92C21.3799 20.72 21.6066 21.7467 21.6066 23C21.6066 24.3067 21.1932 25.5333 20.3666 26.68C19.5399 27.8 18.2866 28.7067 16.6066 29.4C14.9266 30.0667 12.8199 30.4 10.2866 30.4ZM24.3438 30V0.319998H33.3838V30H24.3438ZM50.6306 30V26.12L49.9906 25.08V17.72C49.9906 16.6533 49.6573 15.84 48.9906 15.28C48.3506 14.72 47.2973 14.44 45.8306 14.44C44.844 14.44 43.844 14.6 42.8306 14.92C41.8173 15.2133 40.9506 15.6267 40.2306 16.16L37.3506 10.2C38.6306 9.4 40.164 8.78667 41.9506 8.36C43.7373 7.93333 45.484 7.72 47.1906 7.72C50.9506 7.72 53.8573 8.56 55.9106 10.24C57.9906 11.92 59.0306 14.5867 59.0306 18.24V30H50.6306ZM44.4306 30.4C42.644 30.4 41.1506 30.0933 39.9506 29.48C38.7506 28.8667 37.844 28.0533 37.2306 27.04C36.6173 26 36.3106 24.8533 36.3106 23.6C36.3106 22.1867 36.6706 20.9867 37.3906 20C38.1106 19.0133 39.204 18.2667 40.6706 17.76C42.164 17.2533 44.044 17 46.3106 17H50.8706V21.36H47.7506C46.7906 21.36 46.084 21.52 45.6306 21.84C45.204 22.1333 44.9906 22.5867 44.9906 23.2C44.9906 23.7067 45.1773 24.1333 45.5506 24.48C45.9506 24.8 46.484 24.96 47.1506 24.96C47.764 24.96 48.324 24.8 48.8306 24.48C49.364 24.1333 49.7506 23.6 49.9906 22.88L51.1506 25.56C50.804 27.1867 50.0706 28.4 48.9506 29.2C47.8306 30 46.324 30.4 44.4306 30.4ZM78.1375 7.72C79.8175 7.72 81.3375 8.06667 82.6975 8.76C84.0575 9.42667 85.1242 10.48 85.8975 11.92C86.6975 13.36 87.0975 15.2267 87.0975 17.52V30H78.0575V19.08C78.0575 17.72 77.8175 16.76 77.3375 16.2C76.8575 15.6133 76.2042 15.32 75.3775 15.32C74.7642 15.32 74.1908 15.4667 73.6575 15.76C73.1508 16.0267 72.7375 16.48 72.4175 17.12C72.1242 17.76 71.9775 18.6267 71.9775 19.72V30H62.9375V8.12H71.5375V14.52L69.8175 12.68C70.6708 11.0267 71.8175 9.78667 73.2575 8.96C74.7242 8.13333 76.3508 7.72 78.1375 7.72ZM102.534 38.16C100.374 38.16 98.3474 37.9333 96.4541 37.48C94.5607 37.0267 92.9341 36.3467 91.5741 35.44L94.6141 29.28C95.4674 29.9467 96.5474 30.4667 97.8541 30.84C99.1874 31.24 100.441 31.44 101.614 31.44C103.481 31.44 104.814 31.04 105.614 30.24C106.414 29.4667 106.814 28.3467 106.814 26.88V25.04L107.214 18.24L107.254 11.44V8.12H115.854V25.64C115.854 29.88 114.681 33.0267 112.334 35.08C109.987 37.1333 106.721 38.16 102.534 38.16ZM100.774 28.8C98.9341 28.8 97.2141 28.3733 95.6141 27.52C94.0141 26.64 92.7207 25.4133 91.7341 23.84C90.7474 22.2667 90.2541 20.4 90.2541 18.24C90.2541 16.08 90.7474 14.2133 91.7341 12.64C92.7207 11.0667 94.0141 9.85333 95.6141 9C97.2141 8.14667 98.9341 7.72 100.774 7.72C102.667 7.72 104.214 8.09333 105.414 8.84C106.641 9.58666 107.547 10.7467 108.134 12.32C108.721 13.8667 109.014 15.84 109.014 18.24C109.014 20.64 108.721 22.6267 108.134 24.2C107.547 25.7467 106.641 26.9067 105.414 27.68C104.214 28.4267 102.667 28.8 100.774 28.8ZM103.174 21.76C103.894 21.76 104.534 21.6133 105.094 21.32C105.654 21.0267 106.094 20.6133 106.414 20.08C106.734 19.5467 106.894 18.9333 106.894 18.24C106.894 17.52 106.734 16.9067 106.414 16.4C106.094 15.8667 105.654 15.4667 105.094 15.2C104.534 14.9067 103.894 14.76 103.174 14.76C102.481 14.76 101.841 14.9067 101.254 15.2C100.694 15.4667 100.241 15.8667 99.8941 16.4C99.5741 16.9067 99.4141 17.52 99.4141 18.24C99.4141 18.9333 99.5741 19.5467 99.8941 20.08C100.241 20.6133 100.694 21.0267 101.254 21.32C101.841 21.6133 102.481 21.76 103.174 21.76ZM123.932 30.4C122.438 30.4 121.185 29.92 120.172 28.96C119.158 27.9733 118.652 26.72 118.652 25.2C118.652 23.6533 119.158 22.4133 120.172 21.48C121.185 20.5467 122.438 20.08 123.932 20.08C125.425 20.08 126.678 20.5467 127.692 21.48C128.705 22.4133 129.212 23.6533 129.212 25.2C129.212 26.72 128.705 27.9733 127.692 28.96C126.678 29.92 125.425 30.4 123.932 30.4Z" fill="url(#paint0_linear_20_5775)"/>
<defs>
<linearGradient id="paint0_linear_20_5775" x1="-1" y1="16" x2="130" y2="16" gradientUnits="userSpaceOnUse">
<stop stop-color="#2B59FF"/>
<stop offset="1" stop-color="#22E27F"/>
</linearGradient>
</defs>
</svg>
