<svg width="188" height="40" viewBox="0 0 188 40" fill="none" xmlns="http://www.w3.org/2000/svg">
<path d="M21.986 7.55849L23.4731 6.07141C26.3933 3.15119 31.1475 3.07891 34.0845 5.98231C35.1974 7.08491 35.937 8.50842 36.1993 10.0529C36.4617 11.5974 36.2336 13.1853 35.5471 14.5935C35.2178 15.2662 35.1069 16.0249 35.2297 16.7637C35.3526 17.5025 35.7031 18.1844 36.2324 18.7143C37.2057 17.7388 37.9771 16.5811 38.5027 15.3074C39.0284 14.0336 39.298 12.6688 39.2961 11.2908C39.294 9.91291 39.0207 8.54885 38.4914 7.2766C37.9622 6.00434 37.1874 4.84883 36.2114 3.87608C32.1045 -0.20768 25.4382 -0.126414 21.3428 3.96882L7.16841 18.1428L6.00315 16.9775C3.0334 14.0078 3.01447 9.15341 6.03661 6.23643C7.15527 5.16003 8.58047 4.45735 10.1155 4.22541C11.6505 3.99347 13.2197 4.24369 14.6065 4.94153C15.2394 5.26589 15.9587 5.38191 16.6615 5.27306C17.3644 5.1642 18.0149 4.83602 18.52 4.33538L18.5562 4.29943C18.5674 4.28826 18.5763 4.27497 18.5824 4.26033C18.5885 4.2457 18.5917 4.23 18.5917 4.21415C18.5917 4.1983 18.5885 4.1826 18.5824 4.16797C18.5763 4.15334 18.5674 4.14005 18.5562 4.12887C16.6053 2.22698 13.991 1.15869 11.2664 1.15005C8.54188 1.14142 5.92083 2.19311 3.95792 4.08259C-0.270408 8.16445 -0.255298 14.9522 3.90056 19.108L18.0707 33.2782L16.5655 34.7834C13.6452 37.7036 8.89087 37.7759 5.95401 34.8725C4.84112 33.77 4.10156 32.3464 3.8392 30.8019C3.57685 29.2575 3.80485 27.6697 4.49122 26.2614C4.82051 25.5887 4.93149 24.8299 4.80867 24.0913C4.68584 23.3524 4.33532 22.6704 3.8061 22.1405C2.83287 23.1161 2.06139 24.2737 1.53572 25.5474C1.01005 26.8212 0.740489 28.1859 0.742442 29.564C0.744395 30.9419 1.01782 32.306 1.5471 33.5782C2.07639 34.8505 2.85115 36.006 3.82713 36.9787C7.93384 41.0627 14.6003 40.9816 18.6958 36.8862L32.8885 22.6933L34.0581 23.863C36.9784 26.7832 37.0506 31.5373 34.1472 34.4742C33.0447 35.5873 31.6211 36.3267 30.0767 36.5892C28.5322 36.8516 26.9444 36.6235 25.5361 35.937C24.8632 35.6075 24.1041 35.4964 23.365 35.6196C22.626 35.7425 21.9437 36.0934 21.4139 36.6231C22.3895 37.5964 23.5471 38.3679 24.8208 38.8936C26.0946 39.4192 27.4593 39.6888 28.8374 39.6869C30.2153 39.6848 31.5794 39.4114 32.8516 38.8821C34.1239 38.3528 35.2794 37.578 36.2521 36.602C40.3361 32.4953 40.2548 25.8288 36.1596 21.7336L21.986 7.55849ZM20.1867 31.1612L9.28496 20.2595L19.8693 9.67542L30.771 20.5771L20.1867 31.1612Z" fill="#E4E4E7"/>
<path d="M57.3939 33.0698C55.2245 33.0698 53.5661 32.4334 52.4187 31.1604C51.2802 29.8875 50.6438 28.1484 50.5093 25.9432L53.9516 25.0827C54.1219 28.5249 55.2693 30.2461 57.3939 30.2461C59.115 30.2461 59.9756 29.3855 59.9756 27.6644C59.9756 27.1534 59.9039 26.6828 59.7605 26.2525C59.626 25.8132 59.4153 25.4143 59.1285 25.0558C58.8416 24.6882 58.5816 24.3969 58.3486 24.1817C58.1155 23.9576 57.7973 23.6842 57.3939 23.3615L53.091 19.9192C52.3022 19.3007 51.6702 18.5163 51.1951 17.5661C50.7289 16.6069 50.4958 15.5178 50.4958 14.2986C50.4958 12.5237 51.0472 11.1118 52.1498 10.063C53.2524 9.01416 54.7136 8.48975 56.5333 8.48975C58.4875 8.48975 60.0383 8.96934 61.1858 9.92852C62.3422 10.8787 63.0548 12.2279 63.3238 13.9759C63.3507 14.1641 63.382 14.4241 63.4179 14.7558L59.9756 15.6164C59.9666 15.464 59.9442 15.2354 59.9084 14.9306C59.756 13.8369 59.4108 12.9629 58.873 12.3085C58.3441 11.6452 57.5642 11.3135 56.5333 11.3135C55.7086 11.3135 55.0721 11.5466 54.6239 12.0127C54.1757 12.4699 53.9516 13.1108 53.9516 13.9356C53.9516 15.2892 54.5253 16.4231 55.6727 17.3375L59.9756 20.7798C62.2705 22.6354 63.4179 24.8541 63.4179 27.4358C63.4179 29.2018 62.8711 30.5823 61.7774 31.5773C60.6927 32.5723 59.2316 33.0698 57.3939 33.0698Z" fill="#E4E4E7"/>
<path d="M70.6117 30.2461C71.5171 30.2461 72.3777 30.013 73.1934 29.5469V18.8973C73.1576 18.8794 73.0679 18.8256 72.9245 18.7359C72.7811 18.6463 72.678 18.588 72.6153 18.5611C72.5615 18.5253 72.4673 18.4715 72.3329 18.3998C72.1984 18.3281 72.0864 18.2788 71.9967 18.2519C71.916 18.216 71.8085 18.1802 71.674 18.1443C71.5485 18.0995 71.423 18.0681 71.2975 18.0502C71.181 18.0322 71.0555 18.0233 70.921 18.0233C70.6341 18.0233 70.3787 18.0905 70.1546 18.225C69.9394 18.3505 69.7601 18.5029 69.6167 18.6822C69.4733 18.8614 69.3478 19.1169 69.2402 19.4486C69.1416 19.7803 69.0699 20.0761 69.0251 20.3361C68.9802 20.5871 68.9444 20.9277 68.9175 21.358C68.8906 21.7793 68.8727 22.1065 68.8637 22.3396C68.8637 22.5727 68.8637 22.8999 68.8637 23.3212C68.8637 23.3391 68.8637 23.3525 68.8637 23.3615C68.8637 23.5139 68.8637 23.7604 68.8637 24.1011C68.8637 24.4417 68.8637 24.7689 68.8637 25.0827C68.8637 25.3964 68.8637 25.6922 68.8637 25.9701C68.8727 26.5707 68.8995 27.0996 68.9444 27.5568C68.9982 28.005 69.0833 28.4488 69.1999 28.888C69.3254 29.3183 69.5046 29.6544 69.7377 29.8965C69.9797 30.1296 70.2711 30.2461 70.6117 30.2461ZM73.1934 37.9912V31.2815C72.6825 31.8104 72.1536 32.2406 71.6068 32.5723C71.0689 32.904 70.4504 33.0698 69.7512 33.0698C69.0878 33.0698 68.4962 32.904 67.9762 32.5723C67.4653 32.2317 67.0529 31.7969 66.7392 31.268C66.4344 30.7391 66.1789 30.1161 65.9727 29.399C65.7755 28.6729 65.6365 27.9602 65.5559 27.261C65.4842 26.5618 65.4483 25.8357 65.4483 25.0827V22.4606C65.4483 21.6807 65.4842 20.968 65.5559 20.3226C65.6276 19.6772 65.7576 19.0407 65.9458 18.4132C66.1341 17.7857 66.3806 17.2568 66.6854 16.8265C66.9991 16.3873 67.4115 16.0377 67.9224 15.7777C68.4334 15.5088 69.0251 15.3743 69.6974 15.3743C70.0828 15.3743 70.4414 15.4281 70.7731 15.5357C71.1137 15.6343 71.4364 15.7956 71.7412 16.0198C72.055 16.2439 72.297 16.4411 72.4673 16.6114C72.6466 16.7728 72.8887 17.0148 73.1934 17.3375V15.6164H76.6357V37.9912H73.1934Z" fill="#E4E4E7"/>
<path d="M81.853 33.0698C81.1 33.0698 80.4949 32.8054 80.0377 32.2765C79.5805 31.7386 79.3519 31.0753 79.3519 30.2864V15.6164H82.7942V29.2376C82.7942 29.5962 82.9018 29.8875 83.1169 30.1116C83.341 30.3357 83.6279 30.4478 83.9775 30.4478C84.1657 30.4478 84.3495 30.4254 84.5288 30.3806C84.7081 30.3357 84.8829 30.2595 85.0532 30.152C85.2325 30.0354 85.3714 29.9458 85.4701 29.883C85.5687 29.8113 85.7076 29.6948 85.8869 29.5334C86.0751 29.3721 86.1917 29.2735 86.2365 29.2376V15.6164H89.6788V32.8278H86.2365V30.9722C85.8959 31.268 85.6449 31.4832 85.4835 31.6176C85.3311 31.7521 85.0936 31.9359 84.7708 32.1689C84.4481 32.393 84.1613 32.5589 83.9103 32.6665C83.6682 32.7651 83.3634 32.8547 82.9959 32.9354C82.6284 33.025 82.2474 33.0698 81.853 33.0698Z" fill="#E4E4E7"/>
<path d="M97.397 30.2461C97.6391 30.2461 97.8722 30.1744 98.0963 30.0309C98.3293 29.8875 98.5041 29.7486 98.6207 29.6141C98.7372 29.4796 98.8806 29.3004 99.051 29.0763C99.0779 29.0314 99.1003 29.0001 99.1182 28.9821V24.2221C98.9748 24.3207 98.7372 24.4731 98.4055 24.6793C98.0739 24.8854 97.8094 25.0558 97.6122 25.1902C97.415 25.3157 97.1774 25.495 96.8995 25.7281C96.6216 25.9522 96.4065 26.1718 96.2541 26.387C96.1017 26.5931 95.9672 26.8486 95.8507 27.1534C95.7342 27.4582 95.6759 27.7764 95.6759 28.1081C95.6759 29.5334 96.2496 30.2461 97.397 30.2461ZM95.6759 33.0698C94.7167 33.0698 93.901 32.6575 93.2286 31.8328C92.5653 30.9991 92.2336 30.0623 92.2336 29.0225C92.2336 28.1888 92.3726 27.4313 92.6505 26.75C92.9373 26.0687 93.2376 25.5264 93.5514 25.123C93.8651 24.7106 94.3895 24.2893 95.1246 23.859C95.8597 23.4198 96.4155 23.1195 96.792 22.9581C97.1685 22.7968 97.8229 22.5323 98.7551 22.1648C98.9165 22.102 99.0375 22.0527 99.1182 22.0169V20.7798C99.1182 19.9103 98.9972 19.2379 98.7551 18.7628C98.5131 18.2788 98.0604 18.0367 97.397 18.0367C96.8054 18.0367 96.3796 18.2429 96.1196 18.6553C95.8686 19.0587 95.7252 19.6189 95.6894 20.3361C95.6804 20.4347 95.6759 20.5826 95.6759 20.7798H92.2336C92.2515 19.1304 92.7132 17.8171 93.6186 16.84C94.524 15.8629 95.7835 15.3743 97.397 15.3743C99.0017 15.3743 100.261 15.8718 101.175 16.8669C102.099 17.853 102.56 19.1573 102.56 20.7798V28.5249C102.56 30.3178 102.708 31.7521 103.004 32.8278H99.5754L99.1182 30.2461C98.9389 30.6047 98.791 30.8826 98.6745 31.0798C98.5669 31.277 98.4055 31.5235 98.1904 31.8193C97.9752 32.1062 97.7601 32.3303 97.545 32.4916C97.3298 32.644 97.0609 32.7785 96.7382 32.895C96.4155 33.0116 96.0614 33.0698 95.6759 33.0698Z" fill="#E4E4E7"/>
<path d="M105.532 32.8278V15.6164H108.974V17.9157C109.324 17.2344 109.831 16.6428 110.494 16.1408C111.166 15.6298 111.91 15.3743 112.726 15.3743C112.753 15.3743 112.937 15.3923 113.277 15.4281V19.2335C112.641 18.9825 112.004 18.857 111.368 18.857C110.651 18.857 110.073 19.0721 109.633 19.5024C109.194 19.9327 108.974 20.5019 108.974 21.2101V32.8278H105.532Z" fill="#E4E4E7"/>
<path d="M119.597 33.0698C118.763 33.0698 118.037 32.9264 117.419 32.6396C116.809 32.3527 116.321 31.9807 115.953 31.5235C115.595 31.0574 115.303 30.4657 115.079 29.7486C114.855 29.0225 114.698 28.3008 114.608 27.5837C114.528 26.8576 114.479 26.0149 114.461 25.0558C114.434 24.3028 114.434 23.5498 114.461 22.7968C114.487 21.9003 114.546 21.107 114.635 20.4167C114.734 19.7175 114.9 19.0407 115.133 18.3863C115.366 17.7319 115.666 17.1941 116.034 16.7728C116.41 16.3514 116.899 16.0153 117.499 15.7643C118.109 15.5043 118.817 15.3743 119.624 15.3743C120.359 15.3743 121.005 15.4729 121.56 15.6701C122.125 15.8584 122.591 16.1497 122.959 16.5442C123.335 16.9296 123.645 17.3599 123.887 17.835C124.138 18.3101 124.326 18.8883 124.451 19.5696C124.577 20.2419 124.662 20.9053 124.707 21.5597C124.761 22.2141 124.787 22.9671 124.787 23.8187V24.2221H117.903V25.0827C117.903 25.1992 117.903 25.383 117.903 25.634C117.885 25.9656 117.88 26.3108 117.889 26.6693C117.907 27.0189 117.925 27.3641 117.943 27.7047C117.961 28.0454 118.01 28.3726 118.091 28.6863C118.172 28.9911 118.27 29.26 118.387 29.4931C118.503 29.7262 118.665 29.9099 118.871 30.0444C119.086 30.1789 119.337 30.2461 119.624 30.2461C119.983 30.2461 120.278 30.1789 120.511 30.0444C120.745 29.901 120.915 29.6903 121.022 29.4124C121.139 29.1345 121.22 28.8566 121.264 28.5787C121.309 28.3008 121.336 27.9512 121.345 27.5299V26.8038H124.761V27.4896C124.68 29.3273 124.227 30.7167 123.402 31.658C122.578 32.5992 121.309 33.0698 119.597 33.0698ZM117.903 22.5009H121.318V21.4656C121.309 21.0084 121.282 20.6095 121.238 20.2688C121.193 19.9282 121.112 19.5875 120.996 19.2469C120.888 18.9063 120.718 18.6463 120.485 18.467C120.252 18.2877 119.965 18.1981 119.624 18.1981C119.274 18.1981 118.979 18.2922 118.737 18.4805C118.503 18.6687 118.329 18.9421 118.212 19.3007C118.105 19.6503 118.028 19.9954 117.984 20.3361C117.939 20.6767 117.912 21.0846 117.903 21.5597V22.5009Z" fill="#E4E4E7"/>
<path d="M133.716 33.0698C131.547 33.0698 129.888 32.4334 128.741 31.1604C127.602 29.8875 126.966 28.1484 126.831 25.9432L130.274 25.0827C130.444 28.5249 131.591 30.2461 133.716 30.2461C135.437 30.2461 136.298 29.3855 136.298 27.6644C136.298 27.1534 136.226 26.6828 136.082 26.2525C135.948 25.8132 135.737 25.4143 135.45 25.0558C135.164 24.6882 134.904 24.3969 134.671 24.1817C134.438 23.9576 134.119 23.6842 133.716 23.3615L129.413 19.9192C128.624 19.3007 127.992 18.5163 127.517 17.5661C127.051 16.6069 126.818 15.5178 126.818 14.2986C126.818 12.5237 127.369 11.1118 128.472 10.063C129.574 9.01416 131.036 8.48975 132.855 8.48975C134.81 8.48975 136.36 8.96934 137.508 9.92852C138.664 10.8787 139.377 12.2279 139.646 13.9759C139.673 14.1641 139.704 14.4241 139.74 14.7558L136.298 15.6164C136.289 15.464 136.266 15.2354 136.23 14.9306C136.078 13.8369 135.733 12.9629 135.195 12.3085C134.666 11.6452 133.886 11.3135 132.855 11.3135C132.031 11.3135 131.394 11.5466 130.946 12.0127C130.498 12.4699 130.274 13.1108 130.274 13.9356C130.274 15.2892 130.847 16.4231 131.995 17.3375L136.298 20.7798C138.592 22.6354 139.74 24.8541 139.74 27.4358C139.74 29.2018 139.193 30.5823 138.099 31.5773C137.015 32.5723 135.554 33.0698 133.716 33.0698Z" fill="#E4E4E7"/>
<path d="M146.88 33.0698C145.526 33.0698 144.54 32.7247 143.922 32.0345C143.312 31.3442 142.998 30.2999 142.98 28.9014V18.1981H141.259V15.6164H142.98V9.59235H146.423V15.6164H149.005V18.1981H146.423V28.2426C146.423 28.9328 146.517 29.4393 146.705 29.762C146.893 30.0847 147.274 30.2461 147.848 30.2461C148.099 30.2461 148.485 30.2013 149.005 30.1116V32.9085C148.144 33.0161 147.436 33.0698 146.88 33.0698Z" fill="#E4E4E7"/>
<path d="M160.219 31.4563C159.421 32.532 158.099 33.0698 156.252 33.0698C154.405 33.0698 153.083 32.532 152.285 31.4563C151.488 30.3806 151.089 28.8297 151.089 26.8038V21.6404C151.089 19.6144 151.488 18.0636 152.285 16.9879C153.083 15.9122 154.405 15.3743 156.252 15.3743C158.099 15.3743 159.421 15.9122 160.219 16.9879C161.017 18.0636 161.416 19.6144 161.416 21.6404V26.8038C161.416 28.8297 161.017 30.3806 160.219 31.4563ZM155.607 30.1385C155.795 30.2102 156.01 30.2461 156.252 30.2461C156.494 30.2461 156.705 30.2102 156.884 30.1385C157.072 30.0668 157.225 29.9816 157.341 29.883C157.467 29.7755 157.57 29.6231 157.651 29.4259C157.731 29.2197 157.794 29.0404 157.839 28.888C157.884 28.7356 157.915 28.516 157.933 28.2291C157.951 27.9423 157.96 27.7182 157.96 27.5568C157.969 27.3865 157.973 27.1355 157.973 26.8038V21.6404C157.973 21.3087 157.969 21.0622 157.96 20.9008C157.96 20.7305 157.951 20.5019 157.933 20.215C157.915 19.9282 157.884 19.7086 157.839 19.5562C157.794 19.4038 157.731 19.229 157.651 19.0318C157.57 18.8256 157.467 18.6732 157.341 18.5746C157.225 18.467 157.072 18.3774 156.884 18.3056C156.705 18.2339 156.494 18.1981 156.252 18.1981C156.01 18.1981 155.795 18.2339 155.607 18.3056C155.427 18.3774 155.275 18.467 155.15 18.5746C155.033 18.6732 154.934 18.8256 154.854 19.0318C154.773 19.229 154.71 19.4038 154.665 19.5562C154.621 19.7086 154.589 19.9282 154.571 20.215C154.553 20.5019 154.54 20.7305 154.531 20.9008C154.531 21.0622 154.531 21.3087 154.531 21.6404V26.8038C154.531 27.1355 154.531 27.3865 154.531 27.5568C154.54 27.7182 154.553 27.9423 154.571 28.2291C154.589 28.516 154.621 28.7356 154.665 28.888C154.71 29.0404 154.773 29.2197 154.854 29.4259C154.934 29.6231 155.033 29.7755 155.15 29.883C155.275 29.9816 155.427 30.0668 155.607 30.1385Z" fill="#E4E4E7"/>
<path d="M164.239 32.8278V15.6164H167.682V17.472C168.193 17.0058 168.609 16.6517 168.932 16.4097C169.255 16.1587 169.699 15.9256 170.263 15.7105C170.837 15.4864 171.447 15.3743 172.092 15.3743C172.827 15.3743 173.423 15.6433 173.88 16.1811C174.338 16.719 174.566 17.3778 174.566 18.1577V32.8278H171.124V19.9192C171.124 19.3186 171.039 18.8838 170.868 18.6149C170.698 18.337 170.353 18.1981 169.833 18.1981C169.537 18.1981 169.241 18.2608 168.946 18.3863C168.659 18.5029 168.444 18.6149 168.3 18.7225C168.157 18.8211 167.951 18.9825 167.682 19.2066V32.8278H164.239Z" fill="#E4E4E7"/>
<path d="M182.446 33.0698C181.612 33.0698 180.886 32.9264 180.267 32.6396C179.658 32.3527 179.169 31.9807 178.802 31.5235C178.443 31.0574 178.152 30.4657 177.928 29.7486C177.704 29.0225 177.547 28.3008 177.457 27.5837C177.377 26.8576 177.327 26.0149 177.309 25.0558C177.282 24.3028 177.282 23.5498 177.309 22.7968C177.336 21.9003 177.394 21.107 177.484 20.4167C177.583 19.7175 177.749 19.0407 177.982 18.3863C178.215 17.7319 178.515 17.1941 178.883 16.7728C179.259 16.3514 179.748 16.0153 180.348 15.7643C180.958 15.5043 181.666 15.3743 182.473 15.3743C183.208 15.3743 183.853 15.4729 184.409 15.6701C184.974 15.8584 185.44 16.1497 185.807 16.5442C186.184 16.9296 186.493 17.3599 186.735 17.835C186.986 18.3101 187.174 18.8883 187.3 19.5696C187.425 20.2419 187.511 20.9053 187.555 21.5597C187.609 22.2141 187.636 22.9671 187.636 23.8187V24.2221H180.752V25.0827C180.752 25.1992 180.752 25.383 180.752 25.634C180.734 25.9656 180.729 26.3108 180.738 26.6693C180.756 27.0189 180.774 27.3641 180.792 27.7047C180.81 28.0454 180.859 28.3726 180.94 28.6863C181.02 28.9911 181.119 29.26 181.236 29.4931C181.352 29.7262 181.514 29.9099 181.72 30.0444C181.935 30.1789 182.186 30.2461 182.473 30.2461C182.831 30.2461 183.127 30.1789 183.36 30.0444C183.593 29.901 183.764 29.6903 183.871 29.4124C183.988 29.1345 184.068 28.8566 184.113 28.5787C184.158 28.3008 184.185 27.9512 184.194 27.5299V26.8038H187.609V27.4896C187.529 29.3273 187.076 30.7167 186.251 31.658C185.426 32.5992 184.158 33.0698 182.446 33.0698ZM180.752 22.5009H184.167V21.4656C184.158 21.0084 184.131 20.6095 184.086 20.2688C184.041 19.9282 183.961 19.5875 183.844 19.2469C183.737 18.9063 183.566 18.6463 183.333 18.467C183.1 18.2877 182.813 18.1981 182.473 18.1981C182.123 18.1981 181.827 18.2922 181.585 18.4805C181.352 18.6687 181.177 18.9421 181.061 19.3007C180.953 19.6503 180.877 19.9954 180.832 20.3361C180.787 20.6767 180.761 21.0846 180.752 21.5597V22.5009Z" fill="#E4E4E7"/>
</svg>
