<svg width="188" height="39" viewBox="0 0 188 39" fill="none" xmlns="http://www.w3.org/2000/svg">
<path d="M6.11436 9.28374L8.28524 10.3692C8.68484 10.5437 9.11967 10.6224 9.55504 10.5988C9.99041 10.5753 10.4142 10.4502 10.7926 10.2335L12.8441 8.89841C13.1971 8.64219 13.4844 8.30598 13.6825 7.91734C13.8806 7.5287 13.9839 7.09865 13.9838 6.66241L13.8536 4.21474C13.8061 3.78203 13.6576 3.36647 13.42 3.00166C13.1824 2.63684 12.8625 2.33292 12.4859 2.11442L10.315 1.00184C9.91622 0.825242 9.48139 0.745028 9.04581 0.76766C8.61022 0.790291 8.18603 0.915116 7.80764 1.1321L5.75622 2.46719C5.40383 2.72406 5.11695 3.06038 4.91897 3.44891C4.72093 3.83739 4.61727 4.26717 4.61646 4.70319L4.74671 7.15086C4.78888 7.58948 4.93492 8.01172 5.17274 8.38261C5.41056 8.75356 5.73337 9.06248 6.11436 9.28374Z" fill="#E4E4E7"/>
<path d="M19.2092 12.4529L17.0383 11.3403C16.6397 11.1658 16.2057 11.0872 15.7712 11.1108C15.3367 11.1343 14.9138 11.2594 14.5364 11.476L12.4632 12.8111C12.1121 13.0691 11.8262 13.4057 11.6283 13.794C11.4304 14.1822 11.326 14.6113 11.3235 15.0471L11.4538 17.4947C11.5013 17.9275 11.6498 18.3431 11.8873 18.7079C12.1249 19.0727 12.4449 19.3766 12.8214 19.5951L14.9923 20.6805C15.3902 20.857 15.8241 20.9373 16.2589 20.9147C16.6936 20.892 17.1168 20.7672 17.4942 20.5502L19.5511 19.2151C19.9024 18.9559 20.1883 18.6184 20.3861 18.2292C20.584 17.8402 20.6883 17.4102 20.6908 16.9737L20.5606 14.5315C20.5108 14.1043 20.3629 13.6944 20.1285 13.3338C19.8941 12.9732 19.5794 12.6717 19.2092 12.4529Z" fill="#E4E4E7"/>
<path d="M25.9078 22.7758L23.7369 21.6904C23.338 21.5137 22.9033 21.4335 22.4677 21.4561C22.0321 21.4788 21.6079 21.6036 21.2295 21.8206L19.1781 23.1557C18.8263 23.4131 18.5399 23.7496 18.342 24.138C18.144 24.5264 18.04 24.9558 18.0383 25.3917L18.1686 27.8394C18.2206 28.2652 18.37 28.6732 18.6054 29.0318C18.8406 29.3904 19.1555 29.69 19.5254 29.9072L21.6963 30.9926C22.0959 31.1671 22.5307 31.2457 22.9661 31.2222C23.4014 31.1986 23.8252 31.0735 24.2037 30.8569L26.2605 29.5218C26.6119 29.2644 26.8977 28.9278 27.0948 28.5393C27.2919 28.1508 27.3947 27.7214 27.3949 27.2858L27.2808 24.8816C27.234 24.4472 27.0852 24.0301 26.8466 23.6641C26.608 23.2982 26.2863 22.9938 25.9078 22.7758Z" fill="#E4E4E7"/>
<path d="M9.91339 16.697L9.81027 14.7921C9.81277 14.3563 9.91713 13.9272 10.1151 13.539C10.3129 13.1507 10.5988 12.8141 10.95 12.5561L14.9498 9.95646C15.3272 9.73991 15.7502 9.61481 16.1847 9.59126C16.6192 9.56771 17.0531 9.64635 17.4518 9.82078L19.1559 10.6891C19.5547 10.8657 19.9895 10.946 20.4251 10.9234C20.8607 10.9007 21.2849 10.7759 21.6633 10.5589L23.7147 9.21836C24.0668 8.96122 24.3534 8.62484 24.5514 8.23636C24.7494 7.84794 24.8532 7.41837 24.8545 6.98235L24.7242 4.54011C24.6775 4.10643 24.5294 3.68978 24.2918 3.32399C24.0542 2.95814 23.7338 2.6534 23.3565 2.43436L21.1857 1.32179C20.7861 1.1473 20.3513 1.06866 19.9159 1.09222C19.4805 1.11577 19.0567 1.24087 18.6783 1.45747L16.5834 2.77085C16.232 3.02831 15.9462 3.36491 15.7491 3.75339C15.5521 4.14187 15.4493 4.57127 15.4491 5.00685L15.5468 6.9118C15.5467 7.34744 15.4438 7.77684 15.2467 8.16532C15.0497 8.5538 14.7639 8.89039 14.4125 9.1478L10.4127 11.7474C10.0343 11.9644 9.61017 12.0893 9.17458 12.1119C8.73894 12.1346 8.30417 12.0543 7.90532 11.8777L6.20661 11.0148C5.80777 10.8382 5.37299 10.7579 4.93735 10.7806C4.50177 10.8032 4.07763 10.928 3.69925 11.145L1.64777 12.4801C1.29538 12.737 1.00855 13.0733 0.810515 13.4618C0.612476 13.8504 0.508871 14.2801 0.508057 14.7161L0.638308 17.1638C0.684548 17.5976 0.832548 18.0144 1.07015 18.3803C1.30781 18.7462 1.62839 19.0509 2.00596 19.2695L4.17684 20.355C4.57639 20.5295 5.01122 20.6081 5.44659 20.5846C5.88196 20.561 6.30582 20.4359 6.6842 20.2193L8.73568 18.8842C9.08824 18.636 9.3781 18.3092 9.58254 17.9296C9.78693 17.55 9.9002 17.128 9.91339 16.697Z" fill="#E4E4E7"/>
<path d="M31.3998 14.863C31.3514 14.4297 31.2026 14.0138 30.9652 13.6482C30.7277 13.2826 30.4082 12.9775 30.0321 12.7572L27.8612 11.6718C27.4616 11.4977 27.0267 11.4193 26.5915 11.4428C26.1562 11.4664 25.7324 11.5912 25.3539 11.8075L23.3023 13.1426C22.9506 13.4 22.6643 13.7365 22.4663 14.1248C22.2683 14.5132 22.1643 14.9426 22.1627 15.3786L22.2658 17.2889C22.2641 17.7248 22.1601 18.1542 21.9621 18.5426C21.7642 18.931 21.4778 19.2675 21.126 19.5249L17.1316 22.1191C16.7532 22.3357 16.3294 22.4608 15.894 22.4844C15.4587 22.5079 15.0238 22.4293 14.6242 22.2548L12.9201 21.3865C12.5215 21.212 12.0875 21.1333 11.653 21.1569C11.2185 21.1805 10.7956 21.3055 10.4182 21.5221L8.34498 22.8518C7.99389 23.1099 7.70799 23.4464 7.51006 23.8347C7.31218 24.2229 7.20782 24.652 7.20532 25.0878L7.33552 27.5354C7.38306 27.9682 7.53155 28.3837 7.7691 28.7486C8.0067 29.1134 8.32663 29.4173 8.70323 29.6358L10.8741 30.7484C11.272 30.9249 11.7059 31.0051 12.1406 30.9825C12.5754 30.9599 12.9986 30.835 13.376 30.6181L15.4329 29.283C15.7837 29.0246 16.0695 28.688 16.2673 28.2998C16.4651 27.9116 16.5697 27.4827 16.5727 27.047L16.4695 25.1366C16.4707 24.7006 16.5746 24.2711 16.7725 23.8826C16.9705 23.4942 17.2571 23.1578 17.6092 22.9006L21.6036 20.301C21.982 20.084 22.4062 19.9592 22.8418 19.9365C23.2774 19.9139 23.7121 19.9941 24.111 20.1707L25.8097 21.0337C26.2085 21.2103 26.6434 21.2905 27.079 21.2679C27.5145 21.2452 27.9387 21.1204 28.3171 20.9034L30.374 19.5684C30.725 19.3106 31.0106 18.9739 31.2076 18.5855C31.4047 18.1971 31.5077 17.7678 31.5082 17.3323L31.3998 14.863Z" fill="#E4E4E7"/>
<path d="M38.6873 5.07898H46.8233L50.6393 20.523L54.4553 5.07898H62.9513L55.2113 29.847H46.0313L38.6873 5.07898Z" fill="#E4E4E7"/>
<path d="M70.9388 30.135C68.9228 30.135 67.3508 29.487 66.2228 28.191C65.0948 26.895 64.5308 25.131 64.5308 22.899V11.811H72.1628V22.575C72.1628 23.127 72.3068 23.559 72.5948 23.871C72.9068 24.159 73.3028 24.303 73.7828 24.303C74.2628 24.303 74.7548 24.159 75.2588 23.871L75.6548 28.875C75.1268 29.283 74.4308 29.595 73.5668 29.811C72.7268 30.027 71.8508 30.135 70.9388 30.135ZM68.3468 9.11098C67.2188 9.11098 66.2588 8.76298 65.4668 8.06698C64.6988 7.34698 64.3148 6.47098 64.3148 5.43898C64.3148 4.40698 64.7228 3.54298 65.5388 2.84698C66.3548 2.15098 67.2908 1.80298 68.3468 1.80298C69.4508 1.80298 70.3988 2.16298 71.1908 2.88298C72.0068 3.60298 72.4148 4.45498 72.4148 5.43898C72.4148 6.49498 72.0068 7.37098 71.1908 8.06698C70.3748 8.76298 69.4268 9.11098 68.3468 9.11098Z" fill="#E4E4E7"/>
<path d="M77.7512 12.063H85.3472V15.735C85.8992 14.319 86.6432 13.275 87.5792 12.603C88.5392 11.907 89.6552 11.559 90.9272 11.559L91.9712 17.427C89.6912 17.427 88.0112 17.679 86.9312 18.183C85.8752 18.663 85.3472 19.431 85.3472 20.487V29.847H77.7512V12.063Z" fill="#E4E4E7"/>
<path d="M103.286 30.135C101.27 30.135 99.4696 29.739 97.8856 28.947C96.3256 28.155 95.1016 27.063 94.2136 25.671C93.3496 24.255 92.9176 22.635 92.9176 20.811C92.9176 18.987 93.3616 17.379 94.2496 15.987C95.1376 14.571 96.3616 13.479 97.9216 12.711C99.5056 11.943 101.306 11.559 103.322 11.559C105.362 11.559 107.162 11.955 108.722 12.747C110.306 13.515 111.53 14.595 112.394 15.987C113.258 17.379 113.69 18.987 113.69 20.811C113.69 22.659 113.246 24.291 112.358 25.707C111.494 27.099 110.27 28.191 108.686 28.983C107.126 29.751 105.326 30.135 103.286 30.135ZM103.358 24.735C104.342 24.735 105.146 24.375 105.77 23.655C106.418 22.911 106.742 21.963 106.742 20.811C106.742 19.659 106.418 18.723 105.77 18.003C105.146 17.259 104.342 16.887 103.358 16.887C102.374 16.887 101.558 17.259 100.91 18.003C100.286 18.723 99.9736 19.659 99.9736 20.811C99.9736 21.963 100.286 22.911 100.91 23.655C101.558 24.375 102.374 24.735 103.358 24.735Z" fill="#E4E4E7"/>
<path d="M126.576 38.091C125.256 38.091 123.996 37.959 122.796 37.695L123.372 32.367C124.308 32.511 125.172 32.583 125.964 32.583C127.452 32.583 128.58 32.139 129.348 31.251C130.116 30.387 130.572 28.923 130.716 26.859C129.3 28.851 127.14 29.847 124.236 29.847C122.652 29.847 121.188 29.439 119.844 28.623C118.524 27.807 117.468 26.703 116.676 25.311C115.908 23.919 115.524 22.395 115.524 20.739C115.524 19.059 115.908 17.523 116.676 16.131C117.444 14.715 118.488 13.599 119.808 12.783C121.152 11.967 122.616 11.559 124.2 11.559C125.664 11.559 126.936 11.943 128.016 12.711C129.12 13.455 129.84 14.463 130.176 15.735V11.559H137.772V25.275C137.772 29.475 136.812 32.655 134.892 34.815C132.996 36.999 130.224 38.091 126.576 38.091ZM126.576 24.447C127.536 24.447 128.364 24.111 129.06 23.439C129.756 22.743 130.128 21.927 130.176 20.991V20.703C130.128 19.791 129.744 18.987 129.024 18.291C128.328 17.595 127.512 17.247 126.576 17.247C125.592 17.247 124.752 17.607 124.056 18.327C123.36 19.023 123.012 19.863 123.012 20.847C123.012 21.831 123.36 22.683 124.056 23.403C124.752 24.099 125.592 24.447 126.576 24.447Z" fill="#E4E4E7"/>
<path d="M149.375 30.135C147.815 30.135 146.351 29.727 144.983 28.911C143.639 28.071 142.559 26.943 141.743 25.527C140.927 24.087 140.519 22.491 140.519 20.739C140.519 19.011 140.927 17.451 141.743 16.059C142.559 14.643 143.651 13.539 145.019 12.747C146.387 11.955 147.839 11.559 149.375 11.559C150.623 11.559 151.775 11.907 152.831 12.603C153.911 13.299 154.727 14.343 155.279 15.735V11.559H162.839V29.847H155.279V26.499C154.079 28.923 152.111 30.135 149.375 30.135ZM151.715 24.447C152.675 24.447 153.491 24.111 154.163 23.439C154.859 22.743 155.231 21.927 155.279 20.991V20.703C155.231 19.743 154.847 18.927 154.127 18.255C153.431 17.583 152.627 17.247 151.715 17.247C150.707 17.247 149.843 17.607 149.123 18.327C148.427 19.023 148.079 19.863 148.079 20.847C148.079 21.855 148.439 22.707 149.159 23.403C149.879 24.099 150.731 24.447 151.715 24.447Z" fill="#E4E4E7"/>
<path d="M166.486 12.063H173.722V15.735C175.114 12.951 177.322 11.559 180.346 11.559C182.65 11.559 184.45 12.387 185.746 14.043C187.066 15.675 187.726 17.943 187.726 20.847V29.847H180.166V20.091C180.166 19.059 179.938 18.267 179.482 17.715C179.05 17.163 178.438 16.887 177.646 16.887C177.07 16.887 176.506 17.079 175.954 17.463C175.402 17.823 174.946 18.351 174.586 19.047C174.25 19.743 174.082 20.535 174.082 21.423V29.847H166.486V12.063Z" fill="#E4E4E7"/>
</svg>
