<svg width="165" height="37" viewBox="0 0 165 37" fill="none" xmlns="http://www.w3.org/2000/svg">
<path d="M31.6372 13.8887L31.6151 13.8666C31.6133 13.8654 31.6118 13.8637 31.6109 13.8618L17.7758 0.0263672L3.94085 13.8615C3.93926 13.8631 3.93837 13.8652 3.93676 13.8663L3.91393 13.8884C1.79837 16.0158 0.454625 18.7894 0.0963089 21.7682C-0.262007 24.7471 0.38567 27.7602 1.93637 30.3287C3.48708 32.8972 5.85183 34.8737 8.6547 35.9437C11.4576 37.0138 14.5377 37.1163 17.4055 36.2348C17.6468 36.161 17.9047 36.161 18.1461 36.2348C21.0136 37.116 24.0936 37.0135 26.8963 35.9432C29.699 34.873 32.0634 32.8967 33.614 30.3283C35.1647 27.76 35.8124 24.7471 35.4542 21.7684C35.0961 18.7897 33.7525 16.0162 31.6372 13.8887ZM8.86039 23.0121C8.79304 23.0795 8.73963 23.1595 8.70321 23.2474C8.66676 23.3353 8.64801 23.4296 8.64802 23.5248C8.67264 25.9666 9.36273 28.3554 10.644 30.4343C10.6731 30.4814 10.6866 30.5366 10.6824 30.5918C10.6783 30.647 10.6568 30.6996 10.621 30.7419C10.5852 30.7842 10.537 30.8141 10.4832 30.8273C10.4294 30.8405 10.3728 30.8364 10.3215 30.8155C9.35823 30.4103 8.48317 29.8214 7.74524 29.0816C6.23298 27.5691 5.3828 25.5181 5.38143 23.3792C5.38005 21.2403 6.2276 19.1883 7.73794 17.6739L17.7758 7.63694L27.8132 17.6739C29.3238 19.1881 30.1716 21.2402 30.1702 23.3792C30.169 25.5181 29.3186 27.5691 27.8063 29.0816C27.0683 29.8214 26.1933 30.4103 25.2302 30.8155C25.1788 30.8364 25.1222 30.8405 25.0684 30.8273C25.0146 30.8141 24.9664 30.7841 24.9305 30.7419C24.8948 30.6996 24.8731 30.647 24.869 30.5917C24.8649 30.5365 24.8783 30.4813 24.9074 30.4341C26.189 28.3554 26.8795 25.9666 26.9045 23.5248C26.9045 23.4296 26.8855 23.3353 26.8489 23.2472C26.8123 23.1591 26.7587 23.0793 26.6912 23.0119L21.9434 17.976C21.8961 17.9366 21.8366 17.9149 21.775 17.9149C21.7135 17.9149 21.6539 17.9366 21.6067 17.976C21.5594 18.0153 21.5276 18.0702 21.5165 18.1307C21.5054 18.1913 21.5159 18.2536 21.5463 18.3072C23.3902 21.6441 21.8046 26.437 19.1604 29.0816L19.1465 29.0955C18.7815 29.4566 18.2888 29.659 17.7755 29.6588C17.2621 29.6586 16.7695 29.4559 16.4048 29.0947L16.392 29.0816C13.7468 26.437 12.162 21.6446 14.0062 18.308C14.0365 18.2544 14.0471 18.192 14.036 18.1315C14.025 18.0709 13.9931 18.0161 13.9459 17.9768C13.8986 17.9373 13.839 17.9157 13.7775 17.9157C13.7159 17.9157 13.6563 17.9373 13.6091 17.9768L8.86039 23.0121Z" fill="#E4E4E7"/>
<path d="M65.6736 11.581H70.2526L65.503 27.4507H60.27L58.0516 18.0654L55.8048 27.4507H50.5718L45.8223 11.581H50.6856L53.1599 22.7296L55.6058 11.581H60.7535L63.1993 22.7296L65.6736 11.581Z" fill="#E4E4E7"/>
<path d="M82.1466 22.4167C82.8482 21.7342 83.1989 20.7672 83.1989 19.5158C83.1989 18.2644 82.8482 17.3069 82.1466 16.6433C81.4451 15.9608 80.6393 15.6195 79.7292 15.6195C78.8191 15.6195 78.0133 15.9608 77.3118 16.6433C76.6102 17.3259 76.2595 18.2929 76.2595 19.5443C76.2595 20.7956 76.6102 21.7626 77.3118 22.4452C78.0133 23.1088 78.8191 23.4406 79.7292 23.4406C80.6393 23.4406 81.4451 23.0993 82.1466 22.4167ZM73.4154 25.3745C72.0124 23.8577 71.3108 21.9143 71.3108 19.5443C71.3108 17.1742 72.0124 15.2308 73.4154 13.714C74.8185 12.1782 76.5249 11.4103 78.5347 11.4103C80.5634 11.4103 82.1182 12.1592 83.1989 13.6571V11.581H88.0622V27.4507H83.1989V25.147C82.0234 26.8155 80.4497 27.6498 78.4778 27.6498C76.506 27.6498 74.8185 26.8914 73.4154 25.3745Z" fill="#E4E4E7"/>
<path d="M90.3159 11.581H95.4921L99.104 23.3837L102.716 11.581H107.892L102.261 27.4507H95.9471L90.3159 11.581Z" fill="#E4E4E7"/>
<path d="M116.879 27.6498C114.565 27.6498 112.669 26.9103 111.19 25.4314C109.712 23.9336 108.972 21.9522 108.972 19.4874C108.972 17.0225 109.702 15.0602 111.162 13.6002C112.641 12.1403 114.546 11.4103 116.879 11.4103C119.211 11.4103 121.145 12.1308 122.68 13.5718C124.216 15.0128 124.984 17.0131 124.984 19.5727C124.984 20.1225 124.946 20.6345 124.87 21.1085H113.949C114.044 21.81 114.357 22.3883 114.888 22.8433C115.419 23.2794 115.987 23.4975 116.594 23.4975C117.22 23.4975 117.684 23.4406 117.988 23.3268C118.291 23.1941 118.509 23.0709 118.642 22.9571C118.794 22.8244 118.983 22.6158 119.211 22.3314H124.472C124.017 23.9241 123.107 25.2134 121.742 26.1993C120.377 27.1663 118.756 27.6498 116.879 27.6498ZM119.922 18.0654C119.846 17.3259 119.524 16.7287 118.955 16.2736C118.386 15.7996 117.713 15.5626 116.935 15.5626C116.158 15.5626 115.504 15.7996 114.973 16.2736C114.442 16.7287 114.11 17.3259 113.978 18.0654H119.922Z" fill="#E4E4E7"/>
<path d="M132.971 11.581V14.5387C134.109 12.4531 135.626 11.4103 137.522 11.4103V16.3589H136.327C135.208 16.3589 134.365 16.6244 133.796 17.1553C133.246 17.6862 132.971 18.6152 132.971 19.9424V27.4507H128.108V11.581H132.971Z" fill="#E4E4E7"/>
<path d="M144.598 9.78921C144.049 10.3391 143.375 10.614 142.579 10.614C141.783 10.614 141.11 10.3391 140.56 9.78921C140.01 9.23936 139.735 8.56627 139.735 7.76994C139.735 6.95465 140.01 6.27208 140.56 5.72223C141.11 5.17238 141.783 4.89746 142.579 4.89746C143.375 4.89746 144.049 5.17238 144.598 5.72223C145.148 6.27208 145.423 6.95465 145.423 7.76994C145.423 8.56627 145.148 9.23936 144.598 9.78921ZM140.162 27.4507V11.581H145.025V27.4507H140.162Z" fill="#E4E4E7"/>
<path d="M158.827 22.4736C159.471 21.791 159.794 20.8051 159.794 19.5158C159.794 18.2265 159.462 17.2501 158.798 16.5865C158.135 15.9039 157.348 15.5626 156.438 15.5626C155.528 15.5626 154.741 15.9039 154.077 16.5865C153.433 17.2501 153.11 18.2265 153.11 19.5158C153.11 20.8051 153.442 21.791 154.106 22.4736C154.788 23.1562 155.585 23.4975 156.495 23.4975C157.405 23.4975 158.182 23.1562 158.827 22.4736ZM150.551 25.403C148.958 23.9051 148.162 21.9332 148.162 19.4874C148.162 17.0415 148.958 15.0886 150.551 13.6287C152.143 12.1498 154.115 11.4103 156.466 11.4103C158.817 11.4103 160.78 12.1498 162.353 13.6287C163.946 15.0886 164.742 17.0415 164.742 19.4874C164.742 21.9332 163.956 23.9051 162.382 25.403C160.808 26.9008 158.846 27.6498 156.495 27.6498C154.144 27.6498 152.162 26.9008 150.551 25.403Z" fill="#E4E4E7"/>
</svg>
